<svg width="114" height="114" viewBox="0 0 114 114" fill="none" xmlns="http://www.w3.org/2000/svg">
<path d="M56.9953 35.0405C51.17 35.0405 45.5834 37.3546 41.4644 41.4736C37.3453 45.5927 35.0313 51.1793 35.0312 57.0045C35.0313 62.8297 37.3453 68.4164 41.4644 72.5354C45.5834 76.6545 51.17 78.9685 56.9953 78.9685C62.8205 78.9685 68.4071 76.6545 72.5261 72.5354C76.6452 68.4164 78.9593 62.8297 78.9593 57.0045C78.9593 51.1793 76.6452 45.5927 72.5261 41.4736C68.4071 37.3546 62.8205 35.0405 56.9953 35.0405ZM56.9953 71.2688C53.2109 71.2688 49.5815 69.7654 46.9055 67.0895C44.2296 64.4135 42.7263 60.7842 42.7263 56.9998C42.7263 53.2154 44.2296 49.586 46.9055 46.9101C49.5815 44.2341 53.2109 42.7308 56.9953 42.7308C60.7796 42.7308 64.409 44.2341 67.085 46.9101C69.7609 49.586 71.2643 53.2154 71.2643 56.9998C71.2643 60.7842 69.7609 64.4135 67.085 67.0895C64.409 69.7654 60.7796 71.2688 56.9953 71.2688Z" fill="black"/>
<path d="M79.8285 39.3538C82.6565 39.3538 84.949 37.0613 84.949 34.2333C84.949 31.4053 82.6565 29.1128 79.8285 29.1128C77.0005 29.1128 74.708 31.4053 74.708 34.2333C74.708 37.0613 77.0005 39.3538 79.8285 39.3538Z" fill="black"/>
<path d="M97.5318 29.0274C96.4322 26.1878 94.7517 23.609 92.5981 21.4562C90.4445 19.3034 87.8651 17.624 85.025 16.5254C81.7016 15.2779 78.1906 14.6033 74.6415 14.5304C70.0673 14.3309 68.6185 14.2739 57.019 14.2739C45.4195 14.2739 43.9328 14.2739 39.3965 14.5304C35.8501 14.5996 32.3416 15.2743 29.0225 16.5254C26.1817 17.6227 23.6017 19.3017 21.4479 21.4546C19.2941 23.6076 17.6141 26.187 16.5158 29.0274C15.268 32.3506 14.5949 35.8619 14.5255 39.4109C14.3213 43.9804 14.2595 45.4292 14.2595 57.0334C14.2595 68.6329 14.2595 70.1102 14.5255 74.6559C14.5968 78.2089 15.2665 81.7144 16.5158 85.0442C17.6172 87.8835 19.2988 90.4619 21.4531 92.6146C23.6074 94.7673 26.1871 96.4469 29.0273 97.5462C32.3401 98.8438 35.85 99.5667 39.406 99.6837C43.9803 99.8832 45.429 99.9449 57.0285 99.9449C68.628 99.9449 70.1148 99.9449 74.651 99.6837C78.1998 99.6115 81.7106 98.9386 85.0345 97.6934C87.8739 96.5923 90.4525 94.9114 92.6059 92.758C94.7593 90.6046 96.4402 88.026 97.5413 85.1867C98.7905 81.8617 99.4603 78.3562 99.5315 74.8032C99.7358 70.2337 99.7975 68.7849 99.7975 57.1807C99.7975 45.5764 99.7975 44.1039 99.5315 39.5582C99.4762 35.959 98.7997 32.3964 97.5318 29.0274ZM91.7463 74.3044C91.7156 77.0419 91.216 79.7538 90.269 82.3224C89.5557 84.1695 88.4637 85.8469 87.0631 87.2466C85.6626 88.6464 83.9846 89.7374 82.137 90.4497C79.5969 91.3923 76.9137 91.892 74.2045 91.9269C69.692 92.1359 68.419 92.1882 56.848 92.1882C45.2675 92.1882 44.0848 92.1882 39.4868 91.9269C36.7789 91.8938 34.0971 91.394 31.559 90.4497C29.705 89.7418 28.0203 88.6527 26.6137 87.2527C25.2072 85.8527 24.1102 84.1731 23.3938 82.3224C22.4601 79.7814 21.9608 77.1014 21.9165 74.3947C21.7123 69.8822 21.6648 68.6092 21.6648 57.0382C21.6648 45.4624 21.6648 44.2797 21.9165 39.6769C21.9472 36.941 22.4469 34.2307 23.3938 31.6637C24.8425 27.9159 27.8113 24.9662 31.559 23.5317C34.0983 22.5918 36.7794 22.0923 39.4868 22.0544C44.004 21.8502 45.2723 21.7932 56.848 21.7932C68.4238 21.7932 69.6113 21.7932 74.2045 22.0544C76.914 22.087 79.5975 22.5868 82.137 23.5317C83.9844 24.2455 85.6622 25.3376 87.0626 26.7381C88.4631 28.1385 89.5552 29.8163 90.269 31.6637C91.2027 34.2047 91.702 36.8847 91.7463 39.5914C91.9505 44.1087 92.0028 45.3769 92.0028 56.9527C92.0028 68.5237 92.0028 69.7682 91.7985 74.3092H91.7463V74.3044Z" fill="black"/>
</svg>
