<svg width="90" height="82" viewBox="0 0 90 82" fill="none" xmlns="http://www.w3.org/2000/svg">
<path d="M80.7536 20.4358C80.8131 21.3348 80.8131 22.2287 80.8131 23.1225C80.8131 50.4781 62.2517 82 28.3299 82C17.8791 82 8.17016 78.6043 0 72.7068C1.48382 72.8969 2.91268 72.9637 4.45604 72.9637C12.759 72.9862 20.8268 69.8718 27.359 64.1225C23.5095 64.0444 19.7777 62.6197 16.6849 60.0474C13.5921 57.4751 11.2925 53.8836 10.1074 49.7743C11.2477 49.9644 12.3926 50.0928 13.5925 50.0928C15.2458 50.0928 16.9082 49.836 18.4516 49.389C14.2738 48.4428 10.5171 45.9027 7.82036 42.2005C5.12359 38.4983 3.65318 33.8626 3.65917 29.0817V28.8248C6.11846 30.3609 8.97161 31.3215 11.9942 31.4499C9.46204 29.5625 7.38575 27.0012 5.95057 23.9948C4.51539 20.9883 3.76594 17.6301 3.76908 14.2198C3.76908 10.3771 4.68044 6.85303 6.27875 3.78098C10.914 10.1769 16.6953 15.4094 23.248 19.1395C29.8008 22.8696 36.979 25.0141 44.3176 25.4343C44.0337 23.8931 43.8597 22.2955 43.8597 20.6926C43.8585 17.9749 44.3348 15.2835 45.2614 12.7723C46.188 10.2612 47.5468 7.97948 49.26 6.05773C50.9732 4.13597 53.0072 2.61181 55.2459 1.57239C57.4845 0.532962 59.8838 -0.00134789 62.3066 2.55351e-06C67.6191 2.55351e-06 72.414 2.49668 75.7847 6.53452C79.9145 5.63868 83.8749 3.94754 87.4903 1.53602C86.1137 6.31781 83.2301 10.3725 79.3797 12.9406C83.0425 12.472 86.6222 11.3915 90 9.735C87.4772 13.8607 84.3511 17.4785 80.7536 20.4358Z" fill="black"/>
</svg>
